<?xml version="1.0" standalone="no"?>
<!DOCTYPE svg PUBLIC "-//W3C//DTD SVG 20010904//EN"
 "http://www.w3.org/TR/2001/REC-SVG-20010904/DTD/svg10.dtd">
<svg version="1.0" xmlns="http://www.w3.org/2000/svg"
 width="512.000000pt" height="512.000000pt" viewBox="0 0 512.000000 512.000000"
 preserveAspectRatio="xMidYMid meet">
<metadata>
Created by potrace 1.16, written by Peter Selinger 2001-2019
</metadata>
<g transform="translate(0.000000,512.000000) scale(0.100000,-0.100000)"
fill="#000000" stroke="none">
<path d="M1030 4526 c-201 -42 -358 -126 -511 -274 -125 -120 -197 -232 -265
-417 -20 -54 -44 -99 -59 -112 -31 -27 -85 -43 -147 -43 l-48 0 0 -165 0 -165
61 0 c101 0 151 -35 184 -128 69 -195 152 -328 275 -445 134 -129 277 -209
460 -259 73 -19 109 -23 250 -23 141 0 177 4 250 23 296 81 525 265 665 533
47 90 88 218 100 309 13 104 72 182 178 237 45 23 64 27 137 27 94 0 143 -17
213 -75 46 -38 97 -123 97 -164 1 -99 78 -308 158 -429 144 -217 359 -371 610
-437 110 -29 309 -36 430 -15 326 57 611 277 752 579 21 45 43 100 49 123 26
98 87 144 188 144 l63 0 0 165 0 165 -57 0 c-68 0 -134 27 -158 63 -9 14 -29
60 -44 104 -60 167 -143 296 -272 416 -131 124 -267 199 -447 249 -66 19 -103
22 -257 22 -167 0 -187 -2 -268 -27 -285 -88 -500 -261 -633 -512 l-45 -85
-59 30 c-195 98 -445 98 -640 0 l-59 -30 -19 44 c-54 120 -172 271 -286 362
-95 77 -264 163 -381 195 -102 27 -364 36 -465 15z m405 -336 c195 -61 347
-195 435 -385 51 -109 65 -172 64 -295 -1 -149 -36 -263 -123 -393 -187 -284
-578 -388 -887 -237 -347 170 -494 592 -328 937 93 193 278 341 487 389 89 20
262 12 352 -16z m2598 15 c210 -44 397 -192 491 -388 143 -297 56 -660 -208
-862 -134 -103 -286 -150 -455 -142 -323 15 -575 223 -662 547 -17 61 -17 243
0 310 20 80 81 206 136 278 158 209 439 312 698 257z"/>
<path d="M1780 2269 c-129 -15 -257 -67 -410 -166 -78 -51 -132 -92 -393 -296
-119 -94 -219 -153 -312 -185 -136 -48 -328 -15 -487 82 -94 58 -122 65 -138
36 -15 -28 -6 -85 32 -188 189 -524 528 -845 1000 -949 130 -28 506 -26 641 5
192 43 363 113 508 209 96 62 236 190 289 261 25 34 47 61 50 61 3 0 25 -27
50 -61 53 -71 193 -199 288 -261 148 -97 322 -169 507 -209 97 -20 136 -23
335 -23 179 0 242 4 308 18 234 51 431 153 595 307 174 163 300 362 403 635
44 116 52 175 29 199 -21 21 -40 16 -125 -35 -131 -77 -236 -109 -365 -109
-140 0 -267 66 -528 273 -230 182 -328 249 -443 307 -137 68 -230 91 -374 92
-225 2 -397 -69 -600 -246 -41 -36 -78 -66 -83 -66 -4 0 -33 24 -65 53 -219
201 -457 287 -712 256z"/>
</g>
</svg>
